<?xml version="1.0" standalone="no"?>
<!DOCTYPE svg PUBLIC "-//W3C//DTD SVG 20010904//EN"
 "http://www.w3.org/TR/2001/REC-SVG-20010904/DTD/svg10.dtd">
<svg version="1.0" xmlns="http://www.w3.org/2000/svg"
 width="512.000000pt" height="512.000000pt" viewBox="0 0 512.000000 512.000000"
 preserveAspectRatio="xMidYMid meet">

<g transform="translate(0.000000,512.000000) scale(0.100000,-0.100000)"
fill="#000000" stroke="none">
<path d="M2010 4885 l0 -235 695 0 695 0 0 235 0 235 -695 0 -695 0 0 -235z"/>
<path d="M467 4273 l-147 -148 321 -321 321 -321 -28 -44 c-387 -606 -426
-1393 -102 -2044 301 -605 858 -1017 1536 -1136 168 -30 470 -33 640 -6 283
45 551 141 782 281 l75 45 290 -289 290 -290 148 148 147 147 -2063 2063
-2062 2062 -148 -147z m1946 -2241 c858 -858 1105 -1111 1095 -1119 -29 -24
-169 -88 -268 -123 -185 -66 -305 -85 -535 -85 -169 0 -217 4 -313 23 -567
115 -1042 531 -1225 1072 -67 198 -81 289 -81 525 0 231 14 325 75 510 29 89
127 305 138 305 3 0 505 -499 1114 -1108z"/>
<path d="M2455 4405 c-211 -28 -411 -83 -600 -167 -104 -46 -295 -153 -295
-166 0 -4 74 -81 164 -171 l165 -165 118 56 c132 63 264 108 398 135 138 28
493 25 629 -5 432 -96 793 -342 1031 -702 125 -190 208 -400 246 -620 18 -109
21 -150 16 -320 -8 -277 -49 -444 -170 -688 l-41 -83 165 -165 c90 -90 167
-164 170 -164 4 0 25 30 46 68 168 284 248 518 289 842 63 505 -90 1077 -392
1472 -24 31 -44 60 -44 65 0 4 73 81 162 170 l163 163 -165 165 -165 165 -165
-164 -165 -165 -65 48 c-252 185 -526 306 -840 370 -204 42 -454 52 -655 26z"/>
<path d="M2470 3322 l0 -167 235 -235 235 -235 0 403 0 402 -235 0 -235 0 0
-168z"/>
</g>
</svg>
